<svg width="19" height="19" viewBox="0 0 19 19" fill="none" xmlns="http://www.w3.org/2000/svg">
    <path fill-rule="evenodd" clip-rule="evenodd" d="M18.6295 2.09618C18.7435 1.9823 18.834 1.84707 18.8958 1.69823C18.9575 1.54938 18.9894 1.38982 18.9895 1.22867C18.9896 1.06752 18.9579 0.907921 18.8963 0.758998C18.8348 0.610074 18.7445 0.474737 18.6306 0.360714C18.5167 0.246692 18.3815 0.156217 18.2326 0.094455C18.0838 0.0326929 17.9242 0.000853342 17.7631 0.000754293C17.6019 0.000655244 17.4423 0.0322986 17.2934 0.0938777C17.1445 0.155457 17.0091 0.245765 16.8951 0.359648L9.49458 7.76018L2.09618 0.359648C1.8659 0.129369 1.55358 -2.42638e-09 1.22791 0C0.902251 2.42638e-09 0.589926 0.129369 0.359648 0.359648C0.129369 0.589926 2.42638e-09 0.902251 0 1.22791C-2.42638e-09 1.55358 0.129369 1.8659 0.359648 2.09618L7.76018 9.49458L0.359648 16.893C0.245625 17.007 0.155178 17.1424 0.0934692 17.2913C0.0317608 17.4403 0 17.6 0 17.7612C0 17.9225 0.0317608 18.0822 0.0934692 18.2311C0.155178 18.3801 0.245625 18.5155 0.359648 18.6295C0.589926 18.8598 0.902251 18.9892 1.22791 18.9892C1.38917 18.9892 1.54884 18.9574 1.69782 18.8957C1.84679 18.834 1.98216 18.7435 2.09618 18.6295L9.49458 11.229L16.8951 18.6295C17.1254 18.8595 17.4376 18.9886 17.7631 18.9884C18.0885 18.9882 18.4006 18.8587 18.6306 18.6284C18.8606 18.3982 18.9897 18.086 18.9895 17.7605C18.9893 17.435 18.8598 17.123 18.6295 16.893L11.229 9.49458L18.6295 2.09618Z" fill="#222222"/>
</svg>
