<svg width="25" height="24" viewBox="0 0 25 24" fill="none" xmlns="http://www.w3.org/2000/svg">
<g clip-path="url(#clip0_238_2181)">
<path d="M12.0305 20.9106C13.1378 20.9106 14.0356 20.019 14.0356 18.9192C14.0356 17.8193 13.1378 16.9277 12.0305 16.9277C10.9231 16.9277 10.0254 17.8193 10.0254 18.9192C10.0254 20.019 10.9231 20.9106 12.0305 20.9106Z" stroke="#717171" stroke-width="1.5" stroke-miterlimit="10"/>
<path d="M7.30859 13.9996C7.92863 13.3836 8.66477 12.895 9.47497 12.5616C10.2852 12.2282 11.1536 12.0566 12.0306 12.0566C12.9075 12.0566 13.7759 12.2282 14.5861 12.5616C15.3963 12.895 16.1325 13.3836 16.7525 13.9996" stroke="#717171" stroke-width="1.5" stroke-miterlimit="10"/>
<path d="M4.15039 10.8728C6.24085 8.79818 9.07514 7.63281 12.0304 7.63281C14.9856 7.63281 17.8199 8.79818 19.9103 10.8728" stroke="#717171" stroke-width="1.5" stroke-miterlimit="10"/>
<path d="M1.00293 7.74645C2.45071 6.30735 4.16985 5.16573 6.06209 4.38683C7.95432 3.60794 9.98256 3.20703 12.0309 3.20703C14.0792 3.20703 16.1074 3.60794 17.9997 4.38683C19.8919 5.16573 21.611 6.30735 23.0588 7.74645" stroke="#717171" stroke-width="1.5" stroke-miterlimit="10"/>
</g>
<defs>
<clipPath id="clip0_238_2181">
<rect width="24.061" height="23.897" fill="white"/>
</clipPath>
</defs>
</svg>
