<svg width="24" height="24" viewBox="0 0 24 24" fill="none" xmlns="http://www.w3.org/2000/svg">
<path d="M8.16992 1.5H15.8199V8.2C15.812 9.20884 15.4064 10.1738 14.6911 10.8853C13.9759 11.5968 13.0088 11.9974 11.9999 12C10.9893 12 10.0197 11.6006 9.30225 10.8888C8.58485 10.1771 8.17784 9.21057 8.16992 8.2V1.5Z" stroke="#717171" stroke-width="1.5" stroke-miterlimit="10"/>
<path d="M8.16992 5.33008H18.6999" stroke="#717171" stroke-width="1.5" stroke-miterlimit="10"/>
<path d="M4.35012 23.5V19.67C4.34749 18.6637 4.54342 17.6668 4.9267 16.7363C5.30997 15.8059 5.87304 14.9602 6.58367 14.2477C7.2943 13.5352 8.13852 12.9699 9.06797 12.5842C9.99742 12.1985 10.9938 12 12.0001 12C14.029 12 15.9748 12.806 17.4095 14.2406C18.8441 15.6753 19.6501 17.6211 19.6501 19.65V23.5" stroke="#717171" stroke-width="1.5" stroke-miterlimit="10"/>
<path d="M9.12988 17.7598H11.0399" stroke="#717171" stroke-width="1.5" stroke-miterlimit="10"/>
<path d="M9.12988 21.5898H11.0399" stroke="#717171" stroke-width="1.5" stroke-miterlimit="10"/>
<path d="M8.93018 12.6602L12.9602 15.8502V23.5002" stroke="#717171" stroke-width="1.5" stroke-miterlimit="10"/>
</svg>
