<svg width="25" height="24" viewBox="0 0 25 24" fill="none" xmlns="http://www.w3.org/2000/svg">
    <g clip-path="url(#clip0_98_648)">
        <path d="M19.3784 3.74362C19.381 3.50219 19.3356 3.26262 19.2447 3.03869C19.1538 2.81475 19.0193 2.61087 18.8488 2.43876C18.6783 2.26665 18.4752 2.12971 18.2512 2.03581C18.0273 1.94191 17.7868 1.8929 17.5437 1.8916C17.3006 1.8929 17.0602 1.94191 16.8362 2.03581C16.6123 2.12971 16.4092 2.26665 16.2387 2.43876C16.0682 2.61087 15.9337 2.81475 15.8428 3.03869C15.7519 3.26262 15.7064 3.50219 15.7091 3.74362V16.4887" stroke="#717171" stroke-width="1.5" stroke-miterlimit="10"/>
        <path d="M12.0309 3.74362C12.0336 3.50219 11.9881 3.26262 11.8972 3.03869C11.8063 2.81475 11.6718 2.61087 11.5013 2.43876C11.3308 2.26665 11.1277 2.12971 10.9038 2.03581C10.6798 1.94191 10.4394 1.8929 10.1963 1.8916C9.9527 1.89291 9.71178 1.94184 9.48726 2.03562C9.26274 2.1294 9.05902 2.26619 8.88772 2.43816C8.71643 2.61014 8.58092 2.81394 8.48893 3.03793C8.39694 3.26192 8.35027 3.50172 8.35159 3.74362V16.4887" stroke="#717171" stroke-width="1.5" stroke-miterlimit="10"/>
        <path d="M8.35156 6.45215H15.7102" stroke="#717171" stroke-width="1.5" stroke-miterlimit="10"/>
        <path d="M8.35156 11.0127H15.7102" stroke="#717171" stroke-width="1.5" stroke-miterlimit="10"/>
        <path d="M1.00195 5.53613H5.59359" stroke="#717171" stroke-width="1.5" stroke-miterlimit="10"/>
        <path d="M18.4668 5.53613H23.0584" stroke="#717171" stroke-width="1.5" stroke-miterlimit="10"/>
        <path d="M1.00195 14.667C1.32327 15.0916 1.73962 15.4362 2.21811 15.6736C2.6966 15.9109 3.2241 16.0344 3.75894 16.0344C4.29377 16.0344 4.82128 15.9109 5.29977 15.6736C5.77825 15.4362 6.19461 15.0916 6.51592 14.667C6.83619 15.0915 7.25163 15.4361 7.72931 15.6735C8.20699 15.9109 8.73377 16.0344 9.2679 16.0344C9.80202 16.0344 10.3288 15.9109 10.8065 15.6735C11.2842 15.4361 11.6996 15.0915 12.0199 14.667C12.3389 15.0933 12.7539 15.4397 13.2317 15.6783C13.7096 15.9169 14.237 16.0411 14.7718 16.0411C15.3067 16.0411 15.8341 15.9169 16.3119 15.6783C16.7898 15.4397 17.2048 15.0933 17.5238 14.667C17.8441 15.0915 18.2595 15.4361 18.7372 15.6735C19.2149 15.9109 19.7417 16.0344 20.2758 16.0344C20.8099 16.0344 21.3367 15.9109 21.8144 15.6735C22.2921 15.4361 22.7075 15.0915 23.0278 14.667" stroke="#717171" stroke-width="1.5" stroke-miterlimit="10"/>
        <path d="M1.00195 20.1436C1.32327 20.5682 1.73962 20.9128 2.21811 21.1501C2.6966 21.3875 3.2241 21.511 3.75894 21.511C4.29377 21.511 4.82128 21.3875 5.29977 21.1501C5.77825 20.9128 6.19461 20.5682 6.51592 20.1436C6.83619 20.5681 7.25163 20.9127 7.72931 21.1501C8.20699 21.3874 8.73377 21.511 9.2679 21.511C9.80202 21.511 10.3288 21.3874 10.8065 21.1501C11.2842 20.9127 11.6996 20.5681 12.0199 20.1436C12.3389 20.5699 12.7539 20.9162 13.2317 21.1548C13.7096 21.3934 14.237 21.5177 14.7718 21.5177C15.3067 21.5177 15.8341 21.3934 16.3119 21.1548C16.7898 20.9162 17.2048 20.5699 17.5238 20.1436C17.8441 20.5681 18.2595 20.9127 18.7372 21.1501C19.2149 21.3874 19.7417 21.511 20.2758 21.511C20.8099 21.511 21.3367 21.3874 21.8144 21.1501C22.2921 20.9127 22.7075 20.5681 23.0278 20.1436" stroke="#717171" stroke-width="1.5" stroke-miterlimit="10"/>
    </g>
    <defs>
        <clipPath id="clip0_98_648">
            <rect width="24.061" height="23.897" fill="white"/>
        </clipPath>
    </defs>
</svg>
