<svg width="24" height="24" viewBox="0 0 24 24" fill="none" xmlns="http://www.w3.org/2000/svg">
<rect width="24" height="24" rx="12" fill="#581ADB"/>
<path d="M11.9997 4.5C10.0347 4.5 8.43723 6.0975 8.43723 8.0625C8.43723 9.99 9.94473 11.55 11.9097 11.6175C11.9697 11.61 12.0297 11.61 12.0747 11.6175H12.1272C13.0492 11.5867 13.9232 11.1986 14.5642 10.5352C15.2052 9.87175 15.5631 8.98503 15.5622 8.0625C15.5622 6.0975 13.9647 4.5 11.9997 4.5ZM15.8097 13.6117C13.7172 12.2168 10.3047 12.2168 8.19723 13.6117C7.24473 14.2493 6.71973 15.1117 6.71973 16.0343C6.71973 16.9567 7.24473 17.8118 8.18973 18.4418C9.23973 19.1468 10.6197 19.4993 11.9997 19.4993C13.3797 19.4993 14.7597 19.1468 15.8097 18.4418C16.7547 17.8043 17.2797 16.9492 17.2797 16.0192C17.2722 15.0967 16.7547 14.2417 15.8097 13.6117Z" fill="white"/>
</svg>
