<svg width="25" height="24" viewBox="0 0 25 24" fill="none" xmlns="http://www.w3.org/2000/svg">
<g clip-path="url(#clip0_238_2189)">
<path d="M2.42592 13.8797H21.6346V14.8754C21.6346 16.3938 21.0272 17.8501 19.9462 18.9238C18.8651 19.9975 17.3989 20.6007 15.87 20.6007H8.19053C7.43012 20.6007 6.67723 20.4513 5.97521 20.1611C5.27318 19.8709 4.63591 19.4456 4.10009 18.9097C3.56427 18.3739 3.14049 17.738 2.85316 17.0388C2.56583 16.3395 2.42063 15.5908 2.42592 14.8356V13.8398V13.8797Z" stroke="#717171" stroke-width="1.5" stroke-miterlimit="10"/>
<path d="M4.34082 23.4182V22.4623L6.2657 20.5605" stroke="#717171" stroke-width="1.5" stroke-miterlimit="10"/>
<path d="M19.7198 23.4182V22.4623L17.7949 20.5605" stroke="#717171" stroke-width="1.5" stroke-miterlimit="10"/>
<path d="M2.42578 13.8792V3.85242C2.42578 3.22127 2.67822 2.61598 3.12757 2.16969C3.57692 1.7234 4.18637 1.47268 4.82185 1.47268C5.13735 1.47137 5.45001 1.53195 5.74187 1.65096C6.03373 1.76996 6.29906 1.94505 6.52262 2.16616C6.74617 2.38727 6.92356 2.65005 7.0446 2.93943C7.16564 3.2288 7.22795 3.53907 7.22795 3.85242V5.28624" stroke="#717171" stroke-width="1.5" stroke-miterlimit="10"/>
<path d="M5.30371 5.28711H9.15347" stroke="#717171" stroke-width="1.5" stroke-miterlimit="10"/>
<path d="M0.500977 13.8809H23.5594" stroke="#717171" stroke-width="1.5" stroke-miterlimit="10"/>
</g>
<defs>
<clipPath id="clip0_238_2189">
<rect width="24.061" height="23.897" fill="white"/>
</clipPath>
</defs>
</svg>
