<svg width="25" height="24" viewBox="0 0 25 24" fill="none" xmlns="http://www.w3.org/2000/svg">
<g clip-path="url(#clip0_238_2197)">
<path d="M19.3794 3.7446C19.382 3.50317 19.3366 3.2636 19.2457 3.03966C19.1548 2.81573 19.0202 2.61185 18.8497 2.43974C18.6792 2.26763 18.4762 2.13069 18.2522 2.03679C18.0283 1.94288 17.7878 1.89388 17.5447 1.89258C17.3016 1.89388 17.0612 1.94288 16.8372 2.03679C16.6133 2.13069 16.4102 2.26763 16.2397 2.43974C16.0692 2.61185 15.9346 2.81573 15.8437 3.03966C15.7529 3.2636 15.7074 3.50317 15.7101 3.7446V16.4897" stroke="#717171" stroke-width="1.5" stroke-miterlimit="10"/>
<path d="M12.0309 3.7446C12.0336 3.50317 11.9881 3.2636 11.8972 3.03966C11.8063 2.81573 11.6718 2.61185 11.5013 2.43974C11.3308 2.26763 11.1277 2.13069 10.9038 2.03679C10.6798 1.94288 10.4394 1.89388 10.1963 1.89258C9.9527 1.89388 9.71178 1.94282 9.48726 2.0366C9.26274 2.13038 9.05902 2.26716 8.88772 2.43914C8.71643 2.61111 8.58092 2.81492 8.48893 3.03891C8.39694 3.2629 8.35027 3.50269 8.35159 3.7446V16.4897" stroke="#717171" stroke-width="1.5" stroke-miterlimit="10"/>
<path d="M8.35156 6.45312H15.7102" stroke="#717171" stroke-width="1.5" stroke-miterlimit="10"/>
<path d="M8.35156 11.0117H15.7102" stroke="#717171" stroke-width="1.5" stroke-miterlimit="10"/>
<path d="M1.00293 5.53711H5.59456" stroke="#717171" stroke-width="1.5" stroke-miterlimit="10"/>
<path d="M18.4668 5.53711H23.0584" stroke="#717171" stroke-width="1.5" stroke-miterlimit="10"/>
<path d="M1.00293 14.666C1.32425 15.0907 1.7406 15.4353 2.21909 15.6726C2.69757 15.9099 3.22508 16.0335 3.75991 16.0335C4.29475 16.0335 4.82226 15.9099 5.30074 15.6726C5.77923 15.4353 6.19558 15.0907 6.5169 14.666C6.83717 15.0906 7.25261 15.4352 7.73029 15.6725C8.20796 15.9099 8.73475 16.0335 9.26887 16.0335C9.803 16.0335 10.3298 15.9099 10.8075 15.6725C11.2851 15.4352 11.7006 15.0906 12.0208 14.666C12.3399 15.0924 12.7549 15.4387 13.2327 15.6773C13.7106 15.9159 14.238 16.0401 14.7728 16.0401C15.3077 16.0401 15.8351 15.9159 16.3129 15.6773C16.7908 15.4387 17.2058 15.0924 17.5248 14.666C17.8451 15.0906 18.2605 15.4352 18.7382 15.6725C19.2159 15.9099 19.7426 16.0335 20.2768 16.0335C20.8109 16.0335 21.3377 15.9099 21.8153 15.6725C22.293 15.4352 22.7085 15.0906 23.0287 14.666" stroke="#717171" stroke-width="1.5" stroke-miterlimit="10"/>
<path d="M1.00293 20.1426C1.32425 20.5672 1.7406 20.9118 2.21909 21.1491C2.69757 21.3865 3.22508 21.51 3.75991 21.51C4.29475 21.51 4.82226 21.3865 5.30074 21.1491C5.77923 20.9118 6.19558 20.5672 6.5169 20.1426C6.83717 20.5671 7.25261 20.9117 7.73029 21.1491C8.20796 21.3864 8.73475 21.51 9.26887 21.51C9.803 21.51 10.3298 21.3864 10.8075 21.1491C11.2851 20.9117 11.7006 20.5671 12.0208 20.1426C12.3399 20.5689 12.7549 20.9152 13.2327 21.1538C13.7106 21.3924 14.238 21.5167 14.7728 21.5167C15.3077 21.5167 15.8351 21.3924 16.3129 21.1538C16.7908 20.9152 17.2058 20.5689 17.5248 20.1426C17.8451 20.5671 18.2605 20.9117 18.7382 21.1491C19.2159 21.3864 19.7426 21.51 20.2768 21.51C20.8109 21.51 21.3377 21.3864 21.8153 21.1491C22.293 20.9117 22.7085 20.5671 23.0287 20.1426" stroke="#717171" stroke-width="1.5" stroke-miterlimit="10"/>
</g>
<defs>
<clipPath id="clip0_238_2197">
<rect width="24.061" height="23.897" fill="white"/>
</clipPath>
</defs>
</svg>
