<svg width="25" height="24" viewBox="0 0 25 24" fill="none" xmlns="http://www.w3.org/2000/svg">
    <path d="M8.19156 6V5.2C8.19156 3.43 8.19156 2 11.4684 2H13.1068C16.3836 2 16.3836 3.43 16.3836 5.2V6M8.19156 22H16.3836C20.5 22 21.2373 20.39 21.4524 18.43L22.2204 10.43C22.4968 7.99 21.78 6 17.4076 6H7.16756C2.79508 6 2.07828 7.99 2.35476 10.43L3.12276 18.43C3.3378 20.39 4.07508 22 8.19156 22Z" stroke="#717171" stroke-width="1.5" stroke-miterlimit="10" stroke-linecap="round" stroke-linejoin="round"/>
    <path d="M14.3367 14.02V13C14.3367 12 14.3367 12 13.3127 12H11.2647C10.2407 12 10.2407 12 10.2407 13V14.03M14.3367 14.02C14.3367 15.11 14.3265 16 12.2887 16C10.2612 16 10.2407 15.12 10.2407 14.03M14.3367 14.02C17.1673 13.6759 19.8623 12.6369 22.1703 11M10.2407 14.03C7.58855 13.74 4.98759 12.81 2.68359 11.27" stroke="#717171" stroke-width="1.5" stroke-miterlimit="10" stroke-linecap="round" stroke-linejoin="round"/>
</svg>
