<svg width="25" height="24" viewBox="0 0 25 24" fill="none" xmlns="http://www.w3.org/2000/svg">
    <path d="M8.19227 10.25H16.3843M8.19227 13.75H14.3363M20.4803 7.04V16.96C20.4803 18.48 20.3369 19.56 19.9683 20.33C19.9683 20.34 19.958 20.36 19.9478 20.37C19.7225 20.65 19.4255 20.79 19.0774 20.79C18.5347 20.79 17.8793 20.44 17.1727 19.7C16.3331 18.82 15.0428 18.89 14.3055 19.85L13.2713 21.19C12.8617 21.73 12.319 22 11.7763 22C11.2335 22 10.6908 21.73 10.2812 21.19L9.23675 19.84C8.50971 18.89 7.22971 18.82 6.39003 19.69L6.37979 19.7C5.22267 20.91 4.19867 21.09 3.60475 20.37C3.59397 20.359 3.58683 20.345 3.58427 20.33C3.21563 19.56 3.07227 18.48 3.07227 16.96V7.04C3.07227 5.52 3.21563 4.44 3.58427 3.67C3.58427 3.66 3.58427 3.65 3.60475 3.64C4.18843 2.91 5.22267 3.09 6.37979 4.3L6.39003 4.31C7.22971 5.18 8.50971 5.11 9.23675 4.16L10.2812 2.81C10.6908 2.27 11.2335 2 11.7763 2C12.319 2 12.8617 2.27 13.2713 2.81L14.3055 4.15C15.0428 5.11 16.3331 5.18 17.1727 4.3C17.8793 3.56 18.5347 3.21 19.0774 3.21C19.4255 3.21 19.7225 3.36 19.9478 3.64C19.9683 3.65 19.9683 3.66 19.9683 3.67C20.3369 4.44 20.4803 5.52 20.4803 7.04Z" stroke="#717171" stroke-width="1.5" stroke-linecap="round" stroke-linejoin="round"/>
</svg>
