<svg width="25" height="24" viewBox="0 0 25 24" fill="none" xmlns="http://www.w3.org/2000/svg">
    <path d="M6.14453 10V8C6.14453 4.69 7.16853 2 12.2885 2C17.4085 2 18.4325 4.69 18.4325 8V10M12.2885 18.5C12.9675 18.5 13.6186 18.2366 14.0987 17.7678C14.5788 17.2989 14.8485 16.663 14.8485 16C14.8485 15.337 14.5788 14.7011 14.0987 14.2322C13.6186 13.7634 12.9675 13.5 12.2885 13.5C11.6096 13.5 10.9584 13.7634 10.4783 14.2322C9.99824 14.7011 9.72853 15.337 9.72853 16C9.72853 16.663 9.99824 17.2989 10.4783 17.7678C10.9584 18.2366 11.6096 18.5 12.2885 18.5Z" stroke="#717171" stroke-width="1.5" stroke-linecap="round" stroke-linejoin="round"/>
    <path d="M17.4088 22H7.16883C3.07283 22 2.04883 21 2.04883 17V15C2.04883 11 3.07283 10 7.16883 10H17.4088C21.5048 10 22.5288 11 22.5288 15V17C22.5288 21 21.5048 22 17.4088 22Z" stroke="#717171" stroke-width="1.5" stroke-linecap="round" stroke-linejoin="round"/>
</svg>
