<svg width="23" height="24" viewBox="0 0 23 24" fill="none" xmlns="http://www.w3.org/2000/svg">
    <g clip-path="url(#clip0_166_1731)">
        <path d="M22.9885 12.2242C22.9885 11.2409 22.9102 10.5234 22.7408 9.7793H11.7285V14.2173H18.1925C18.0622 15.3202 17.3585 16.9811 15.7946 18.0972L15.7727 18.2458L19.2545 20.996L19.4958 21.0205C21.7112 18.9344 22.9885 15.8649 22.9885 12.2242Z" fill="#4285F4"/>
        <path d="M11.73 23.9178C14.8968 23.9178 17.5554 22.8548 19.4972 21.0211L15.796 18.0978C14.8056 18.8021 13.4763 19.2937 11.73 19.2937C8.62831 19.2937 5.99579 17.2076 5.05738 14.3242L4.91982 14.3361L1.2993 17.193L1.25195 17.3272C3.18072 21.2337 7.14256 23.9178 11.73 23.9178Z" fill="#34A853"/>
        <path d="M5.0565 14.3238C4.80889 13.5797 4.66559 12.7824 4.66559 11.9586C4.66559 11.1347 4.80889 10.3375 5.04347 9.59342L5.03691 9.43494L1.37102 6.53223L1.25107 6.59039C0.456137 8.21149 0 10.0319 0 11.9586C0 13.8853 0.456137 15.7056 1.25107 17.3267L5.0565 14.3238Z" fill="#FBBC05"/>
        <path d="M11.73 4.62403C13.9324 4.62403 15.4181 5.59402 16.2652 6.40461L19.5754 3.10928C17.5424 1.1826 14.8968 0 11.73 0C7.14256 0 3.18072 2.68406 1.25195 6.59057L5.04435 9.59359C5.99579 6.7102 8.6283 4.62403 11.73 4.62403Z" fill="#EB4335"/>
    </g>
    <defs>
        <clipPath id="clip0_166_1731">
            <rect width="23" height="24" fill="white"/>
        </clipPath>
    </defs>
</svg>
