<svg width="48" height="48" viewBox="0 0 48 48" fill="none" xmlns="http://www.w3.org/2000/svg">
    <rect width="48" height="48" rx="24" fill="#581ADB"/>
    <path d="M23.002 31.998C25.3889 31.998 27.6781 31.0498 29.3659 29.362C31.0537 27.6742 32.002 25.385 32.002 22.998C32.002 20.6111 31.0537 18.3219 29.3659 16.6341C27.6781 14.9463 25.3889 13.998 23.002 13.998C20.615 13.998 18.3258 14.9463 16.638 16.6341C14.9502 18.3219 14.002 20.6111 14.002 22.998C14.002 25.385 14.9502 27.6742 16.638 29.362C18.3258 31.0498 20.615 31.998 23.002 31.998ZM30.932 32.688C31.462 34.288 32.672 34.448 33.602 33.048C34.452 31.768 33.892 30.718 32.352 30.718C31.212 30.708 30.572 31.598 30.932 32.688Z" stroke="white" stroke-width="1.5" stroke-linecap="round" stroke-linejoin="round"/>
</svg>
